<mxfile host="app.diagrams.net" modified="2023-11-04T12:26:37.107Z" agent="Mozilla/5.0 (Windows NT 10.0; Win64; x64) AppleWebKit/537.36 (KHTML, like Gecko) Chrome/118.0.0.0 Safari/537.36" etag="B4f4UYAea2-gVwLn08XI" version="22.0.8" type="google">
  <diagram name="Page-1" id="2YBvvXClWsGukQMizWep">
    <mxGraphModel grid="1" page="1" gridSize="10" guides="1" tooltips="1" connect="1" arrows="1" fold="1" pageScale="1" pageWidth="850" pageHeight="1100" math="0" shadow="0">
      <root>
        <mxCell id="0" />
        <mxCell id="1" parent="0" />
        <mxCell id="rWZBq-ulkpkECsrD5BeH-1" value="" style="ellipse;html=1;shape=startState;fillColor=#000000;strokeColor=#ff0000;" vertex="1" parent="1">
          <mxGeometry x="404" y="50" width="30" height="30" as="geometry" />
        </mxCell>
        <mxCell id="rWZBq-ulkpkECsrD5BeH-2" value="" style="edgeStyle=orthogonalEdgeStyle;html=1;verticalAlign=bottom;endArrow=open;endSize=8;strokeColor=#ff0000;rounded=0;" edge="1" parent="1" source="rWZBq-ulkpkECsrD5BeH-1">
          <mxGeometry relative="1" as="geometry">
            <mxPoint x="419" y="130" as="targetPoint" />
          </mxGeometry>
        </mxCell>
        <mxCell id="rWZBq-ulkpkECsrD5BeH-3" value="" style="ellipse;html=1;shape=endState;fillColor=#000000;strokeColor=#ff0000;" vertex="1" parent="1">
          <mxGeometry x="770" y="230" width="30" height="30" as="geometry" />
        </mxCell>
        <mxCell id="rWZBq-ulkpkECsrD5BeH-4" value="" style="rounded=1;whiteSpace=wrap;html=1;" vertex="1" parent="1">
          <mxGeometry x="369" y="130" width="100" height="30" as="geometry" />
        </mxCell>
        <mxCell id="rWZBq-ulkpkECsrD5BeH-7" value="" style="rounded=1;whiteSpace=wrap;html=1;" vertex="1" parent="1">
          <mxGeometry x="369" y="180" width="100" height="30" as="geometry" />
        </mxCell>
        <mxCell id="rWZBq-ulkpkECsrD5BeH-8" value="" style="rounded=1;whiteSpace=wrap;html=1;" vertex="1" parent="1">
          <mxGeometry x="369" y="230" width="100" height="30" as="geometry" />
        </mxCell>
      </root>
    </mxGraphModel>
  </diagram>
</mxfile>
